<svg id="Layer_1" data-name="Layer 1" xmlns="http://www.w3.org/2000/svg" xmlns:xlink="http://www.w3.org/1999/xlink" viewBox="0 0 479 443.21"><defs><style>.cls-1{fill:#fff;}.cls-2{fill:url(#New_Gradient_Swatch_1);}.cls-3{fill:url(#New_Gradient_Swatch_1-2);}</style><linearGradient id="New_Gradient_Swatch_1" x1="594.87" y1="350.23" x2="739.29" y2="350.23" gradientUnits="userSpaceOnUse"><stop offset="0" stop-color="#a67329"/><stop offset="0.29" stop-color="#f3e080"/><stop offset="0.58" stop-color="#a67329"/><stop offset="1" stop-color="#f5e382"/></linearGradient><linearGradient id="New_Gradient_Swatch_1-2" x1="654.67" y1="448.26" x2="280.09" y2="746.12" xlink:href="#New_Gradient_Swatch_1"/></defs><polygon class="cls-1" points="471.5 53.08 425.92 53.08 425.92 7.5 387.66 7.5 387.66 53.08 342.08 53.08 342.08 91.34 387.66 91.34 387.66 136.92 425.92 136.92 425.92 91.34 471.5 91.34 471.5 53.08"/><path class="cls-2" d="M693.71,422.44H640.45V376.86H594.87V323.59h45.58V278h53.26v45.57h45.58v53.27H693.71Zm-38.26-15h23.26V361.86h45.58V338.59H678.71V293H655.45v45.57H609.87v23.27h45.58Z" transform="translate(-260.29 -278.02)"/><path class="cls-1" d="M698.1,713.73,550.39,331.09H418.94L271.23,713.73H397l19.57-62.46H552.77l19.57,62.46Zm-190.68-148H443.35l41.31-131.9L526,565.74Z" transform="translate(-260.29 -278.02)"/><path class="cls-3" d="M709,721.22H566.83l-19.57-62.45H422.07L402.5,721.22H260.29l153.5-397.63H555.54Zm-131.19-15H687.17L545.25,338.59H424.08L282.16,706.22H391.48l19.57-62.45H558.28Zm-41.66-133H433.14l51.52-164.49Zm-82.63-15h62.21l-31.11-99.31Z" transform="translate(-260.29 -278.02)"/></svg>